# xmcd
#
# Track frame offsets: 
#        150
#        13920
#        32424
#        48287
#        67547
#        84146
#        102856
#        118749
#        136102
#        150398
#        161903
#        186361
#        204528
#        224139
#        242304
#        254491
#        273953
#
# Disc length: 3864 seconds
#
# Revision: 2
# Processed by: cddbd v1.5.2PL0 Copyright (c) Steve Scherf et al.
# Submitted via: ExactAudioCopy v0.99pb4
#
DISCID=df0f1611
DTITLE=Various Artist - RH105
DYEAR=2007
DGENRE=Pop
TTITLE0=Timbaland f OneRepublic - Apologize
TTITLE1=Fergie - Clumsy
TTITLE2=Finger Eleven - Paralyzer (Guitar Down Mix)
TTITLE3=Chris Brown f T-Pain - Kiss Kiss
TTITLE4=Natasha Bedingfield - Love Like This (Radio Edit)
TTITLE5=Britney Spears - Gimme More (Clean Edit)
TTITLE6=Kanye West f T-Pain - Good Life (Clean Edit)
TTITLE7=Good Charlotte - Dance Floor Anthem (I Don't Wanna Be In Love)
TTITLE8=Jennifer Lopez - Do It Well
TTITLE9=Jonas Brothers - S.O.S.
TTITLE10=Justin Timberlake w Beyonce - Until The End Of Time
TTITLE11=Alicia Keys - No One (Radio Edit)
TTITLE12=Hurricane Chris f Big Poppa Of Ratchet City - The Hand Clap
TTITLE13=Ciara f 50 Cent - Can't Leave 'Em Alone
TTITLE14=My Chemical Romance - Teenagers (Clean Edit)
TTITLE15=Fabolous f Ne-Yo - Make Me Better (Clean Edit)
TTITLE16=Three Days Grace - Never Too Late
EXTD=
EXTT0=
EXTT1=
EXTT2=
EXTT3=
EXTT4=
EXTT5=
EXTT6=
EXTT7=
EXTT8=
EXTT9=
EXTT10=
EXTT11=
EXTT12=
EXTT13=
EXTT14=
EXTT15=
EXTT16=
PLAYORDER=
